<svg id="Layer_1" data-name="Layer 1" xmlns="http://www.w3.org/2000/svg" width="103.03mm" height="30mm" viewBox="0 0 292.05 85.04">
  <defs>
    <style>
      .cls-1 {
        fill: #acd1ef;
      }

      .cls-2 {
        fill: #58b0e3;
      }

      .cls-3 {
        fill: #008fd5;
      }
    </style>
  </defs>
  <g>
    <path class="cls-1" d="M244.7,384.22a6.55,6.55,0,1,1,6.55,6.55,6.55,6.55,0,0,1-6.55-6.55" transform="translate(-151.4 -377.67)"/>
    <path class="cls-1" d="M244.7,456.17V402.89a6.55,6.55,0,0,1,13.1,0v53.28a6.55,6.55,0,0,1-13.1,0" transform="translate(-151.4 -377.67)"/>
    <path class="cls-2" d="M235,384.22a6.55,6.55,0,1,1,6.55,6.55,6.55,6.55,0,0,1-6.55-6.55" transform="translate(-151.4 -377.67)"/>
    <path class="cls-2" d="M235,456.17V402.89a6.55,6.55,0,0,1,13.1,0v53.28a6.55,6.55,0,0,1-13.1,0" transform="translate(-151.4 -377.67)"/>
    <path class="cls-3" d="M225.23,384.22a6.56,6.56,0,1,1,6.55,6.55,6.56,6.56,0,0,1-6.55-6.55" transform="translate(-151.4 -377.67)"/>
    <path class="cls-3" d="M225.23,456.17V402.89a6.56,6.56,0,0,1,13.11,0v53.28a6.56,6.56,0,0,1-13.11,0" transform="translate(-151.4 -377.67)"/>
    <path class="cls-1" d="M430.35,384.22a6.55,6.55,0,1,1,6.55,6.55,6.55,6.55,0,0,1-6.55-6.55" transform="translate(-151.4 -377.67)"/>
    <path class="cls-1" d="M430.35,456.17V402.89a6.55,6.55,0,0,1,13.1,0v53.28a6.55,6.55,0,0,1-13.1,0" transform="translate(-151.4 -377.67)"/>
    <path class="cls-2" d="M420.62,384.22a6.55,6.55,0,1,1,6.55,6.55,6.55,6.55,0,0,1-6.55-6.55" transform="translate(-151.4 -377.67)"/>
    <path class="cls-2" d="M420.62,456.17V402.89a6.55,6.55,0,0,1,13.1,0v53.28a6.55,6.55,0,0,1-13.1,0" transform="translate(-151.4 -377.67)"/>
    <path class="cls-3" d="M410.88,384.22a6.56,6.56,0,1,1,6.55,6.55,6.56,6.56,0,0,1-6.55-6.55" transform="translate(-151.4 -377.67)"/>
    <path class="cls-3" d="M410.88,456.17V402.89a6.56,6.56,0,0,1,13.11,0v53.28a6.56,6.56,0,0,1-13.11,0" transform="translate(-151.4 -377.67)"/>
    <path class="cls-3" d="M344,462.71a6.56,6.56,0,0,1-6-9.2l23.5-53.25a6.55,6.55,0,0,1,12,0L397,453.51a6.55,6.55,0,0,1-12,5.29l-17.5-39.67L350,458.8A6.55,6.55,0,0,1,344,462.71Z" transform="translate(-151.4 -377.67)"/>
    <path class="cls-3" d="M172.3,426a3.27,3.27,0,0,0-2.55,5.31l22.94,28.94a6.55,6.55,0,1,0,10.25-8.16l-11.4-14.44a21.37,21.37,0,0,0-7.73-41.29H158a6.55,6.55,0,0,0-6.55,6.55v53.26a6.55,6.55,0,0,0,13.1,0V409.45h19.31a8.27,8.27,0,0,1,0,16.54Z" transform="translate(-151.4 -377.67)"/>
    <path class="cls-3" d="M280.81,462.71a6.5,6.5,0,0,1-6.5-6.5V402.85a6.5,6.5,0,0,1,13,0v53.36A6.5,6.5,0,0,1,280.81,462.71Z" transform="translate(-151.4 -377.67)"/>
    <path class="cls-3" d="M327.19,398a6.5,6.5,0,0,0-9.17.58l-25.49,28.93a3.9,3.9,0,0,0-.08,5.06h0l23.07,27.82a6.5,6.5,0,0,0,10-8.3l-18.1-21.83,20.34-23.08A6.5,6.5,0,0,0,327.19,398Z" transform="translate(-151.4 -377.67)"/>
  </g>
</svg>
